<?xml version="1.0" encoding="UTF-8"?>
<svg id="Layer_1" data-name="Layer 1" xmlns="http://www.w3.org/2000/svg" viewBox="0 0 1920 1086.41">
  <defs>
    <style>
      .cls-1 {
        fill: #585ff1;
        opacity: 0.25;
      }
    </style>
  </defs>
  <path class="cls-1" d="m1792.88,1086.41h20.36c36.2-11.28,71.81-18.2,106.76-17.71v-5.06c-41.49-1.1-83.91,8.14-127.12,22.76Z"/>
  <path class="cls-1" d="m1753.61,1086.41h19.5c50.06-17.93,99.1-29.69,146.89-27.82v-5.06c-53.98-2.78-109.54,11.69-166.39,32.88Z"/>
  <path class="cls-1" d="m0,790.48c0,1.69,0,3.37,0,5.06,579.43,717.32,1340.57-344.74,1920,0v-5.06c-579.43-352.95-1340.57,718.15-1920,0Z"/>
  <path class="cls-1" d="m0,830.95c0,1.69,0,3.37,0,5.06,122.35,155.18,252.79,226.11,387.92,250.4h37.17c-148.38-17.24-291.56-86.42-425.09-255.46Z"/>
  <path class="cls-1" d="m1714.55,1086.41h19.58c63.64-24.37,125.74-41.78,185.87-37.94v-5.06c-66.29-3.68-134.95,15.99-205.45,43Z"/>
  <path class="cls-1" d="m1694.91,1078.25c-6.98,2.66-13.98,5.39-20.99,8.16h20.35c.21-.08.43-.17.64-.25,77.4-29.98,152.67-52.75,225.09-47.8v-5.06c-72.43-5.86-147.7,15.83-225.09,44.96Z"/>
  <path class="cls-1" d="m1542.92,1086.41h22.55c43.71-17.16,86.9-33.6,129.44-47.46,77.4-24.92,152.67-41.34,225.09-30.95v-5.06c-119.07-17.03-245.82,32.21-377.08,83.47Z"/>
  <path class="cls-1" d="m1694.91,1046.78c-35.17,11.85-70.79,25.41-106.78,39.63h22.1c28.48-11.29,56.72-22.07,84.68-31.79,77.4-26.59,152.67-45.1,225.09-36.5v-5.06c-72.43-9.5-147.7,7.96-225.09,33.72Z"/>
  <path class="cls-1" d="m1694.91,1062.48c-20.85,7.48-41.85,15.54-63,23.93h21.19c14-5.55,27.94-10.93,41.81-16.06,77.4-28.27,152.67-48.9,225.09-42.12v-5.06c-72.43-7.69-147.7,11.87-225.09,39.3Z"/>
  <path class="cls-1" d="m0,901.77c0,1.69,0,3.37,0,5.06,63.06,81.62,128.26,139.21,195.16,179.58h8.57c-69.89-40.6-137.98-99.64-203.72-184.64Z"/>
  <path class="cls-1" d="m1494.76,1086.41h24.39c139.73-53.56,274.6-108.18,400.84-88.53v-5.06c-133.57-22.47-276.8,37.95-425.24,93.58Z"/>
  <path class="cls-1" d="m0,891.66c0,1.69,0,3.37,0,5.06,68.55,88.53,139.65,148.96,212.68,189.7h9.35c-76.32-40.76-150.56-102.56-222.04-194.76Z"/>
  <path class="cls-1" d="m0,911.89c0,1.69,0,3.37,0,5.06,57.96,75.17,117.74,129.83,178.97,169.46h7.94c-64.01-40.05-126.45-96.18-186.92-174.52Z"/>
  <path class="cls-1" d="m0,922.01c0,1.69,0,3.37,0,5.06,53.19,69.1,107.9,120.75,163.87,159.35h7.43c-58.55-39.15-115.76-92.31-171.29-164.41Z"/>
  <path class="cls-1" d="m0,881.54c0,1.69,0,3.37,0,5.06,74.53,96.01,152.06,159.16,231.82,199.82h10.35c-83.41-40.41-164.43-104.85-242.17-204.88Z"/>
  <path class="cls-1" d="m0,851.19c0,1.69,0,3.37,0,5.06,97.21,124.15,199.53,194.06,305.26,230.17h16.26c-111.5-34.29-219.34-104.93-321.52-235.23Z"/>
  <path class="cls-1" d="m0,841.07c0,1.69,0,3.37,0,5.06,107.8,137.22,221.9,208.38,339.95,240.29h21.47c-125.69-28.74-247.09-100.07-361.42-245.34Z"/>
  <path class="cls-1" d="m0,861.3c0,1.69,0,3.37,0,5.06,88.57,113.47,181.39,181.46,277.15,220.05h13.42c-100.52-37.52-197.87-106.52-290.58-225.11Z"/>
  <path class="cls-1" d="m0,871.42c0,1.69,0,3.37,0,5.06,81.13,104.24,165.83,169.93,253.08,209.93h11.63c-91.37-39.41-179.99-106.28-264.72-214.99Z"/>
  <path class="cls-1" d="m1457.04,1007.02c-76.26,26.88-153.77,54.03-231.96,79.4h28.06c68.67-22.48,136.77-46.32,203.9-70.21,161.89-54.43,318.11-109.2,462.96-68.9v-5.06c-144.86-42.01-301.07,10.78-462.96,64.77Z"/>
  <path class="cls-1" d="m1457.04,898.44c-161.89,49.98-329.46,117.72-497.04,169.9-20.15,6.27-40.29,12.31-60.43,18.08h25.79c11.55-3.37,23.09-6.82,34.64-10.35,167.57-51.22,335.14-118.19,497.04-168.73,161.89-48.72,318.11-81.01,462.96-20.73v-5.06c-144.86-61.88-301.07-31.36-462.96,16.9Z"/>
  <path class="cls-1" d="m1457.04,845.56c-161.89,46.54-329.46,118.26-497.04,175.81-74.78,25.68-149.56,48.52-223.83,65.05h28.87c64.77-15.42,129.86-35.27,194.96-57.29,167.57-56.68,335.14-127.74,497.04-174.83,161.89-45.88,318.11-67.78,462.96,1.95v-5.06c-144.86-71.27-301.07-51.04-462.96-5.63Z"/>
  <path class="cls-1" d="m1457.04,828.14c-161.89,45.4-329.46,118.35-497.04,177.57-96.38,34.06-192.76,63.57-288.06,80.7h33.27c84.43-17.18,169.61-43.25,254.79-72.93,167.57-58.39,335.14-130.7,497.04-176.66,161.89-44.93,318.11-63.5,462.96,9.3v-5.06c-144.86-74.32-301.07-57.4-462.96-12.93Z"/>
  <path class="cls-1" d="m1457.04,880.71c-161.89,48.83-329.46,117.95-497.04,171.97-37.68,12.15-75.36,23.52-112.98,33.73h26.07c28.95-8.09,57.93-16.81,86.91-26,167.57-53.09,335.14-121.49,497.04-170.87,161.89-47.77,318.11-76.53,462.96-13.07v-5.06c-144.86-65.05-301.07-38.03-462.96,9.29Z"/>
  <path class="cls-1" d="m1457.04,863.08c-161.89,47.68-329.46,118.13-497.04,173.94-55.68,18.54-111.35,35.46-166.82,49.39h26.92c46.55-12.2,93.22-26.34,139.9-41.64,167.57-54.91,335.14-124.67,497.04-172.9,161.89-46.82,318.11-72.12,462.96-5.51v-5.06c-144.86-68.18-301.07-44.59-462.96,1.78Z"/>
  <path class="cls-1" d="m1457.04,810.83c-161.89,44.27-329.46,118.38-497.04,179.23-125.75,45.66-251.5,83.85-374.85,96.36h48.47c107.74-15.98,217.06-49.41,326.38-88.58,167.57-60.04,335.14-133.55,497.04-178.37,161.89-43.98,318.11-59.28,462.96,16.55v-5.06c-144.86-77.33-301.07-63.65-462.96-20.13Z"/>
  <path class="cls-1" d="m960,942.92C624.86,1072.29,289.71,1161.26,0,800.6c0,1.69,0,3.37,0,5.06,144.86,181.52,301.07,248.28,462.96,255.54,161.89,6.93,329.46-45.63,497.04-110.3,167.57-64.67,335.14-141.43,497.04-182.91,161.89-41.15,318.11-47.02,462.96,37.67v-5.06c-289.71-170.68-624.86,13.26-960,142.32Z"/>
  <path class="cls-1" d="m1457.04,776.51c-161.89,42.04-329.46,118.3-497.04,182.24-167.57,63.93-335.14,115.52-497.04,108.21-161.89-7.72-318.11-74.33-462.96-256.24,0,1.69,0,3.37,0,5.06,144.86,182.29,301.07,248.74,462.96,256.9,161.89,7.67,329.46-42.95,497.04-106.13,167.57-63.18,335.14-138.91,497.04-181.5,161.89-42.09,318.11-51.04,462.96,30.73v-5.06c-144.86-83.23-301.07-75.84-462.96-34.21Z"/>
  <path class="cls-1" d="m1457.04,793.61c-161.89,43.15-329.46,118.37-497.04,180.79-167.57,62.42-335.14,112.02-497.04,103.98-161.89-8.62-318.11-74.88-462.96-257.55,0,1.69,0,3.37,0,5.06,144.86,183.03,301.07,249.1,462.96,258.16,161.89,8.39,329.46-40.22,497.04-101.86,167.57-61.64,335.14-136.29,497.04-179.99,161.89-43.04,318.11-55.13,462.96,23.69v-5.06c-144.86-80.3-301.07-69.79-462.96-27.22Z"/>
  <path class="cls-1" d="m0,932.12c0,1.69,0,3.37,0,5.06,48.69,63.36,98.66,111.93,149.69,149.23h6.98c-53.46-37.98-105.77-88.09-156.67-154.29Z"/>
  <path class="cls-1" d="m1457.04,1025.48c-57.78,20.8-116.29,41.37-175.26,60.94h27.94c49.52-16.65,98.68-34.02,147.32-51.7,161.89-55.39,318.11-114.12,462.96-77.29v-5.06c-144.86-38.56-301.07,18.17-462.96,73.12Z"/>
  <path class="cls-1" d="m1457.04,934.21c-147.53,47.68-299.77,105.71-452.43,152.2h26.27c143.84-44.2,287.1-97.79,426.16-143.21,161.89-50.62,318.11-90.15,462.96-36.37v-5.06c-144.86-55.41-301.07-17.73-462.96,32.44Z"/>
  <path class="cls-1" d="m1457.04,1044.04c-39.41,14.48-79.16,28.67-119.16,42.37h27.32c30.79-10.74,61.41-21.8,91.83-33.09,161.89-56.34,318.11-119.11,462.96-85.79v-5.06c-144.86-35.08-301.07,25.66-462.96,81.56Z"/>
  <path class="cls-1" d="m1457.04,1062.71c-21.47,8.05-43.05,15.96-64.7,23.7h26.12c12.89-4.73,25.76-9.51,38.58-14.37,161.89-57.3,318.11-124.16,462.96-94.39v-5.06c-144.86-31.55-301.07,33.25-462.96,90.12Z"/>
  <path class="cls-1" d="m1457.04,1081.48c-4.32,1.65-8.65,3.29-12.98,4.93h25.28c157.5-57.34,309.48-124.16,450.66-98.64v-5.06c-144.86-27.98-301.07,40.95-462.96,98.77Z"/>
  <path class="cls-1" d="m1457.04,952.26c-130.26,43.04-264.19,92.39-398.84,134.16h26.83c125.6-39.21,250.41-84.52,372.01-125.12,161.89-51.57,318.11-94.81,462.96-44.35v-5.06c-144.86-52.12-301.07-10.76-462.96,40.37Z"/>
  <path class="cls-1" d="m1457.04,970.41c-112.61,38.04-227.98,79.44-344.18,116.01h27.36c106.94-33.85,213.04-71.51,316.81-106.92,161.89-52.52,318.11-99.54,462.96-52.43v-5.06c-144.86-48.79-301.07-3.68-462.96,48.4Z"/>
  <path class="cls-1" d="m1457.04,988.66c-94.59,32.65-191.12,66.69-288.46,97.75h27.85c87.9-28.24,175.05-58.79,260.62-88.62,161.89-53.48,318.11-104.34,462.96-60.61v-5.06c-144.86-45.42-301.07,3.5-462.96,56.53Z"/>
  <path class="cls-1" d="m1858.81,1086.41c20.61-4.63,41.01-7.36,61.19-7.59v-5.06c-27.99-.04-56.4,4.71-85.2,12.65h24.01Z"/>
  <path class="cls-1" d="m0,137.92c144.86,42.01,301.07-10.78,462.96-64.77C532.77,48.54,603.63,23.71,675.09.23h-27.91c-62,20.56-123.51,42.12-184.22,63.73C301.07,118.39,144.86,173.16,0,132.86c0,1.69,0,3.37,0,5.06Z"/>
  <path class="cls-1" d="m0,148.04c144.86,45.42,301.07-3.5,462.96-56.53C551.02,61.11,640.76,29.51,731.27.23h-27.71c-81.11,26.4-161.53,54.58-240.59,82.14C301.07,135.84,144.86,186.7,0,142.98c0,1.69,0,3.37,0,5.06Z"/>
  <path class="cls-1" d="m0,127.8c144.86,38.56,301.07-18.17,462.96-73.12,51.44-18.52,103.45-36.85,155.85-54.46h-27.68c-43.05,14.66-85.81,29.82-128.18,45.22C301.07,100.83,144.86,159.57,0,122.74c0,1.69,0,3.37,0,5.06Z"/>
  <path class="cls-1" d="m0,942.24c0,1.69,0,3.37,0,5.06,44.42,57.89,89.92,103.33,136.31,139.11h6.6c-48.68-36.57-96.38-83.58-142.91-144.17Z"/>
  <path class="cls-1" d="m0,188.5c144.86,58.66,301.07,24.6,462.96-24.62C620.54,114.1,783.5,49.97,946.6.23h-25.64c-154.53,47.62-308.68,107.03-458,154.72C301.07,204.62,144.86,240.49,0,183.45c0,1.69,0,3.37,0,5.06Z"/>
  <path class="cls-1" d="m0,178.39c144.86,55.41,301.07,17.73,462.96-32.44C603.71,100.46,748.75,45.54,894.36.23h-26.12c-136.82,42.88-272.94,93.51-405.27,136.73C301.07,187.58,144.86,227.1,0,173.33c0,1.69,0,3.37,0,5.06Z"/>
  <path class="cls-1" d="m0,107.57c144.86,31.55,301.07-33.25,462.96-90.12,15.52-5.82,31.09-11.56,46.7-17.23h-25.66c-7.02,2.61-14.04,5.24-21.04,7.89C301.07,65.41,144.86,132.28,0,102.51c0,1.69,0,3.37,0,5.06Z"/>
  <path class="cls-1" d="m0,168.27c144.86,52.12,301.07,10.76,462.96-40.37C586.55,87.06,713.44,40.55,841.11.23h-26.69c-118.66,37.67-236.49,80.25-351.45,118.64C301.07,170.44,144.86,213.68,0,163.21c0,1.69,0,3.37,0,5.06Z"/>
  <path class="cls-1" d="m0,158.15c144.86,48.79,301.07,3.68,462.96-48.4C568.97,73.95,677.42,35.16,786.7.23h-27.25c-100.06,32.14-199.3,67.28-296.49,100.44C301.07,153.19,144.86,200.21,0,153.09c0,1.69,0,3.37,0,5.06Z"/>
  <path class="cls-1" d="m0,56.98c72.43,7.69,147.7-11.87,225.09-39.3,15.42-5.53,30.93-11.38,46.52-17.45h-21.26c-8.44,3.27-16.87,6.47-25.26,9.58C147.7,38.07,72.43,58.7,0,51.92c0,1.69,0,3.37,0,5.06Z"/>
  <path class="cls-1" d="m0,36.75C60.86,40.12,123.73,23.82,188.17.23h-19.65C110.93,21.12,54.66,35.18,0,31.69c0,1.69,0,3.37,0,5.06Z"/>
  <path class="cls-1" d="m0,26.63C48.28,29.11,97.81,17.8,148.4.23h-20.44C84.46,14.43,41.76,23.2,0,21.57c0,1.69,0,3.37,0,5.06Z"/>
  <path class="cls-1" d="m0,46.86C72.43,52.73,147.7,31.03,225.09,1.91c1.45-.55,2.9-1.12,4.35-1.68h-20.71C137.09,27.05,67.32,46.4,0,41.8c0,1.69,0,3.37,0,5.06Z"/>
  <path class="cls-1" d="m0,11.45c0,1.69,0,3.37,0,5.06C34.96,17.44,70.58,11.02,106.79.23h-22.66C55.7,7.59,27.64,11.84,0,11.45Z"/>
  <path class="cls-1" d="m0,77.21C114.04,93.52,235.12,49.04,360.47.23h-22.53c-38.05,14.8-75.7,28.87-112.85,40.98C147.7,66.13,72.43,82.55,0,72.16c0,1.69,0,3.37,0,5.06Z"/>
  <path class="cls-1" d="m0,198.62c144.86,61.88,301.07,31.36,462.96-16.9,161.89-49.98,329.46-117.72,497.04-169.9,12.73-3.96,25.45-7.83,38.17-11.6h-25.4c-4.26,1.28-8.52,2.57-12.78,3.87-167.57,51.22-335.14,118.19-497.04,168.73C301.07,221.55,144.86,253.84,0,193.56c0,1.69,0,3.37,0,5.06Z"/>
  <path class="cls-1" d="m0,97.45C143.57,125.18,298.29,57.72,458.64.23h-25.66C281.78,55.96,135.89,116.95,0,92.39c0,1.68,0,3.37,0,5.06Z"/>
  <path class="cls-1" d="m0,87.33C128.4,108.93,265.73,53.94,408.02.23h-24.06C250.24,51.59,121.15,101.13,0,82.27c0,1.69,0,3.37,0,5.06Z"/>
  <path class="cls-1" d="m0,67.1c72.43,9.5,147.7-7.96,225.09-33.72,29.79-10.03,59.9-21.3,90.28-33.15h-22.08c-22.9,8.93-45.64,17.47-68.2,25.31C147.7,52.12,72.43,70.63,0,62.04c0,1.69,0,3.37,0,5.06Z"/>
  <path class="cls-1" d="m0,117.68c144.86,35.07,301.07-25.66,462.96-81.56,33.23-12.21,66.71-24.21,100.37-35.89h-26.96c-24.58,8.7-49.06,17.58-73.41,26.61C301.07,83.17,144.86,145.94,0,112.62c0,1.69,0,3.37,0,5.06Z"/>
  <path class="cls-1" d="m0,1018.12c19.15,25.31,38.49,47.94,58.02,68.29h4.86c-21.18-21.65-42.15-45.95-62.88-73.35,0,1.69,0,3.37,0,5.06Z"/>
  <path class="cls-1" d="m0,1002.95c0,1.69,0,3.37,0,5.06,22.35,29.53,44.97,55.48,67.84,78.41h5.41c-24.71-24.3-49.14-51.93-73.25-83.47Z"/>
  <path class="cls-1" d="m0,992.83c0,1.69,0,3.37,0,5.06,25.78,33.72,51.92,63,78.39,88.53h5.23c-28.26-26.71-56.15-57.65-83.62-93.58Z"/>
  <path class="cls-1" d="m0,1028.24c16.04,21.21,32.22,40.53,48.54,58.17h4.7c-17.91-19.01-35.66-39.99-53.24-63.23,0,1.69,0,3.37,0,5.06Z"/>
  <path class="cls-1" d="m0,982.71c0,1.69,0,3.37,0,5.06,29.21,38.19,58.88,70.77,88.97,98.64h5.47c-31.96-29-63.46-63.2-94.44-103.7Z"/>
  <path class="cls-1" d="m0,952.36c0,1.69,0,3.37,0,5.06,40.36,52.66,81.61,94.94,123.62,129h6.27c-44.17-34.94-87.51-78.81-129.88-134.05Z"/>
  <path class="cls-1" d="m0,962.48c0,1.69,0,3.37,0,5.06,36.49,47.65,73.7,86.73,111.54,118.88h5.96c-39.89-33.12-79.09-73.81-117.5-123.94Z"/>
  <path class="cls-1" d="m0,972.59c0,1.69,0,3.37,0,5.06,32.78,42.84,66.15,78.67,100.03,108.76h5.69c-35.84-31.14-71.1-68.59-105.72-113.82Z"/>
  <path class="cls-1" d="m0,1038.36c13.05,17.25,26.19,33.22,39.41,48.06h4.53c-14.76-16.26-29.41-33.89-43.95-53.12,0,1.69,0,3.37,0,5.06Z"/>
  <path class="cls-1" d="m0,228.97c144.86,71.27,301.07,51.04,462.96,5.63,161.89-46.54,329.46-118.26,497.04-175.81,65.43-22.47,130.87-42.77,195.97-58.57h-27.23c-56.1,14.34-112.42,31.76-168.74,50.81-167.57,56.68-335.14,127.74-497.04,174.83-161.89,45.88-318.11,67.78-462.96-1.95,0,1.69,0,3.37,0,5.06Z"/>
  <path class="cls-1" d="m0,239.09c144.86,74.32,301.07,57.4,462.96,12.93,161.89-45.4,329.46-118.35,497.04-177.57,85.15-30.09,170.31-56.63,254.72-74.22h-30.01c-74.56,16.94-149.64,40.29-224.71,66.45-167.57,58.39-335.14,130.7-497.04,176.66-161.89,44.93-318.11,63.5-462.96-9.3,0,1.69,0,3.37,0,5.06Z"/>
  <path class="cls-1" d="m0,208.74c144.86,65.05,301.07,38.03,462.96-9.29,161.89-48.83,329.46-117.95,497.04-171.97,29.89-9.63,59.78-18.78,89.64-27.26h-25.47c-21.38,6.21-42.78,12.74-64.17,19.52-167.57,53.09-335.14,121.49-497.04,170.87C301.07,238.39,144.86,267.15,0,203.68c0,1.69,0,3.37,0,5.06Z"/>
  <path class="cls-1" d="m0,218.86c144.86,68.18,301.07,44.59,462.96-1.78,161.89-47.68,329.46-118.13,497.04-173.94,47.31-15.75,94.61-30.34,141.79-42.91h-25.97c-38.56,10.63-77.19,22.5-115.82,35.16-167.57,54.91-335.14,124.67-497.04,172.9-161.89,46.82-318.11,72.12-462.96,5.51,0,1.69,0,3.37,0,5.06Z"/>
  <path class="cls-1" d="m0,6.39c19.2.03,38.6-2.21,58.18-6.17H20.98C13.96.88,6.97,1.26,0,1.33c0,1.69,0,3.37,0,5.06Z"/>
  <path class="cls-1" d="m0,1048.47c10,13.43,20.05,26.06,30.16,37.94h4.79c-11.72-13.39-23.37-27.69-34.95-43,0,1.69,0,3.37,0,5.06Z"/>
  <path class="cls-1" d="m0,1068.71c4.51,6.07,9.04,11.97,13.57,17.71h4.04c-5.89-7.31-11.76-14.9-17.61-22.76,0,1.69,0,3.37,0,5.06Z"/>
  <path class="cls-1" d="m0,1058.59c7.21,9.7,14.45,18.96,21.72,27.82h4.18c-8.67-10.39-17.31-21.33-25.9-32.88,0,1.69,0,3.37,0,5.06Z"/>
  <path class="cls-1" d="m462.96,269.33c161.89-44.27,329.46-118.38,497.04-179.23C1068.67,50.64,1177.34,16.77,1284.47.23h-36.91c-95.14,17.6-191.35,47.62-287.56,82.1-167.57,60.04-335.14,133.55-497.04,178.37-161.89,43.98-318.11,59.28-462.96-16.55,0,1.69,0,3.37,0,5.06,144.86,77.33,301.07,63.65,462.96,20.13Z"/>
  <path class="cls-1" d="m0,1078.83c1.91,2.56,3.81,5.09,5.72,7.59h3.89c-3.21-4.13-6.42-8.34-9.61-12.65,0,1.69,0,3.37,0,5.06Z"/>
  <path class="cls-1" d="m1457.04,916.28c-161.89,51.15-329.46,117.45-497.04,167.72-2.71.81-5.41,1.62-8.12,2.42h25.89c161.64-48.62,323.09-111.32,479.26-161.2,161.89-49.67,318.11-85.55,462.96-28.5v-5.06c-144.86-58.67-301.07-24.6-462.96,24.62Z"/>
  <path class="cls-1" d="m1457.04,7.48c-161.89-7.67-329.46,42.95-497.04,106.13-167.57,63.18-335.14,138.91-497.04,181.5-161.89,42.09-318.11,51.04-462.96-30.73,0,1.69,0,3.37,0,5.06,144.86,83.23,301.07,75.84,462.96,34.21,161.89-42.04,329.46-118.3,497.04-182.24,167.57-63.93,335.14-115.52,497.04-108.21,161.89,7.72,318.11,74.33,462.96,256.24v-5.06C1775.14,82.09,1618.93,15.64,1457.04,7.48Z"/>
  <path class="cls-1" d="m1457.04,152.12c-161.89,1.6-329.46,71.91-497.04,149.25-167.57,77.35-335.14,161.75-497.04,191.5-161.89,30.83-318.11,6.99-462.96-107.08,0,1.69,0,3.37,0,5.06,144.86,115.3,301.07,140.3,462.96,109.95,161.89-29.22,329.46-113.77,497.04-191.53,167.57-77.77,335.14-148.75,497.04-150.78,161.89-3.15,318.11,62.66,462.96,232.36v-5.06c-144.86-170.33-301.07-236.35-462.96-233.67Z"/>
  <path class="cls-1" d="m1502.56.23h-171.68c-122.08,13.41-246.48,51.98-370.88,97.74-167.57,61.64-335.14,136.29-497.04,179.99-161.89,43.04-318.11,55.13-462.96-23.69,0,1.69,0,3.37,0,5.06,144.86,80.3,301.07,69.79,462.96,27.22,161.89-43.15,329.46-118.37,497.04-180.79C1127.57,43.34,1295.14-6.26,1457.04,1.78c161.89,8.62,318.11,74.88,462.96,257.55v-5.06C1788.77,88.45,1648.21,18.63,1502.56.23Z"/>
  <path class="cls-1" d="m0,780.37c0,1.69,0,3.37,0,5.06,579.43,718.89,1340.57-361.07,1920,0v-5.06c-579.43-369.09-1340.57,719.53-1920,0Z"/>
  <path class="cls-1" d="m1457.04,18.96c-161.89-6.93-329.46,45.63-497.04,110.3-167.57,64.67-335.14,141.43-497.04,182.91-161.89,41.15-318.11,47.02-462.96-37.67,0,1.69,0,3.37,0,5.06,289.71,170.68,624.86-13.26,960-142.32C1295.14,7.87,1630.29-81.1,1920,279.56v-5.06c-144.86-181.52-301.07-248.28-462.96-255.54Z"/>
  <path class="cls-1" d="m1658.27.23h-12.32c94.66,38.78,186.43,106.56,274.05,218.63v-5.06C1836.19,106.43,1748.58,39.78,1658.27.23Z"/>
  <path class="cls-1" d="m1700.5.23h-9.72c78.85,40.71,155.51,103.55,229.22,198.4v-5.06C1849.32,102.5,1775.93,41.01,1700.5.23Z"/>
  <path class="cls-1" d="m1632.68.23h-14.46c104.49,36.38,205.63,106.16,301.78,228.75v-5.06C1828.3,106.8,1732.04,37.96,1632.68.23Z"/>
  <path class="cls-1" d="m1602.24.23h-17.99c116.55,32.33,229.22,103.51,335.75,238.87v-5.06C1818.96,105.42,1712.4,34.85,1602.24.23Z"/>
  <path class="cls-1" d="m1680.58.23h-10.84c86.26,40.12,170.01,105.54,250.26,208.51v-5.06C1843.11,104.89,1763.02,40.72,1680.58.23Z"/>
  <path class="cls-1" d="m1457.04,126.98c-161.89-.01-329.46,67.57-497.04,143.11-167.57,75.54-335.14,159.06-497.04,190.87-161.89,32.7-318.11,13.69-462.96-95.4,0,1.69,0,3.37,0,5.06,144.86,110.35,301.07,130.59,462.96,98.37,161.89-31.28,329.46-115.01,497.04-191.02,167.57-76.02,335.14-144.33,497.04-144.73,161.89-1.33,318.11,65.24,462.96,237.38v-5.06c-144.86-172.72-301.07-239.45-462.96-238.58Z"/>
  <path class="cls-1" d="m1457.04,102.24c-161.89-1.6-329.46,63.03-497.04,136.54-167.57,73.51-335.14,155.92-497.04,189.83-161.89,34.57-318.11,20.65-462.96-83.3,0,1.69,0,3.37,0,5.06,144.86,105.25,301.07,120.46,462.96,86.37,161.89-33.38,329.46-116.06,497.04-190.1,167.57-74.04,335.14-139.46,497.04-138.26,161.89.48,318.11,67.57,462.96,241.99v-5.06c-144.86-174.96-301.07-242.14-462.96-243.08Z"/>
  <path class="cls-1" d="m1457.04,114.56c-161.89-.81-329.46,65.32-497.04,139.88-167.57,74.56-335.14,157.55-497.04,190.41-161.89,33.63-318.11,17.14-462.96-89.4,0,1.69,0,3.37,0,5.06,144.86,107.82,301.07,125.58,462.96,92.42,161.89-32.33,329.46-115.56,497.04-190.61,167.57-75.06,335.14-141.95,497.04-141.54,161.89-.43,318.11,66.44,462.96,239.74v-5.06c-144.86-173.86-301.07-240.84-462.96-240.88Z"/>
  <path class="cls-1" d="m1457.04,139.5c-161.89.79-329.46,69.76-497.04,146.23-167.57,76.47-335.14,160.46-497.04,191.24-161.89,31.76-318.11,10.31-462.96-101.29,0,1.69,0,3.37,0,5.06,144.86,112.84,301.07,135.49,462.96,104.21,161.89-30.24,329.46-114.42,497.04-191.33,167.57-76.92,335.14-146.6,497.04-147.81,161.89-2.24,318.11,63.98,462.96,234.93v-5.06c-144.86-171.55-301.07-237.95-462.96-236.18Z"/>
  <path class="cls-1" d="m1457.04,90.03c-161.89-2.38-329.46,60.69-497.04,133.11-167.57,72.42-335.14,154.18-497.04,189.16-161.89,35.51-318.11,24.22-462.96-77.09,0,1.69,0,3.37,0,5.06,144.86,102.64,301.07,115.25,462.96,80.21,161.89-34.43,329.46-116.51,497.04-189.48,167.57-72.97,335.14-136.85,497.04-134.87,161.89,1.39,318.11,68.64,462.96,244.13v-5.06c-144.86-176.01-301.07-243.32-462.96-245.17Z"/>
  <path class="cls-1" d="m960,192.04C624.86,333.7,289.71,508.56,0,314.97c0,1.69,0,3.37,0,5.06,144.86,97.29,301.07,104.5,462.96,67.59,161.89-36.57,329.46-117.26,497.04-187.93,167.57-70.67,335.14-131.31,497.04-127.77,161.89,3.2,318.11,70.59,462.96,248.11v-5.06C1630.29-42.78,1295.14,50.02,960,192.04Z"/>
  <path class="cls-1" d="m0,294.74c0,1.69,0,3.37,0,5.06,579.43,369.09,1340.57-719.53,1920,0v-5.06C1340.57-424.15,579.43,655.8,0,294.74Z"/>
  <path class="cls-1" d="m0,304.85c0,1.69,0,3.37,0,5.06,289.71,190.41,624.86,14.26,960-126.02,335.14-140.02,670.29-232.23,960,126.02v-5.06C1340.57-415.24,579.43,681.88,0,304.85Z"/>
  <path class="cls-1" d="m1457.04,77.93c-161.89-3.16-329.46,58.3-497.04,129.57-167.57,71.26-335.14,152.34-497.04,188.38-161.89,36.45-318.11,27.86-462.96-70.78,0,1.69,0,3.37,0,5.06,144.86,99.98,301.07,109.93,462.96,73.95,161.89-35.5,329.46-116.91,497.04-188.76,167.57-71.85,335.14-134.14,497.04-131.37,161.89,2.3,318.11,69.65,462.96,246.17v-5.06c-144.86-177.03-301.07-244.41-462.96-247.16Z"/>
  <path class="cls-1" d="m1563.28.23h-25.65c133.15,25.02,261.7,96.22,382.37,248.98v-5.06C1807.1,100.95,1687.29,29.5,1563.28.23Z"/>
  <path class="cls-1" d="m1872.79.23c15.86,17.27,31.6,36.12,47.21,56.75v-5.06c-14.1-18.65-28.32-35.82-42.63-51.7h-4.57Z"/>
  <path class="cls-1" d="m1863.37.23c19.06,20,37.94,42.17,56.63,66.87v-5.06c-17.14-22.66-34.44-43.16-51.89-61.81h-4.74Z"/>
  <path class="cls-1" d="m1853.26.23c22.5,22.71,44.75,48.22,66.74,76.99v-5.06c-20.27-26.78-40.76-50.62-61.45-71.93h-5.29Z"/>
  <path class="cls-1" d="m1881.88.23c12.79,14.44,25.5,29.95,38.12,46.64v-5.06c-11.16-14.76-22.4-28.6-33.69-41.58h-4.42Z"/>
  <path class="cls-1" d="m1919,0v.23h-3.64c1.55,2.04,3.1,4.09,4.64,6.17V1.33c-.33-.45-.67-.89-1-1.33Z"/>
  <path class="cls-1" d="m1907.54.23c4.16,5.29,8.32,10.71,12.46,16.28v-5.06c-2.83-3.81-5.67-7.55-8.52-11.23h-3.94Z"/>
  <path class="cls-1" d="m1890.65.23c9.83,11.5,19.61,23.65,29.35,36.52v-5.06c-8.2-11.02-16.44-21.49-24.72-31.46h-4.63Z"/>
  <path class="cls-1" d="m1848.24.23h-5.1c25.95,25.21,51.58,54.04,76.87,87.11v-5.06c-23.63-30.9-47.56-58.07-71.76-82.05Z"/>
  <path class="cls-1" d="m1899.45.23c6.88,8.44,13.73,17.23,20.55,26.4v-5.06c-5.47-7.36-10.96-14.47-16.47-21.34h-4.08Z"/>
  <path class="cls-1" d="m1735.32.23h-8.18c66.09,40.33,130.53,97.56,192.87,178.16v-5.06c-59.76-77.35-121.46-133.12-184.68-173.1Z"/>
  <path class="cls-1" d="m1750.83.23h-7.62c60.47,39.56,119.52,93.84,176.79,168.04v-5.06c-54.86-71.16-111.36-123.93-169.17-162.99Z"/>
  <path class="cls-1" d="m1765.35.23h-7.14c55.24,38.48,109.27,89.74,161.79,157.93v-5.06c-50.26-65.31-101.89-115.02-154.65-152.87Z"/>
  <path class="cls-1" d="m1718.63.23h-8.85c72.17,40.74,142.44,100.85,210.22,188.28v-5.06C1854.99,99.49,1787.7,40.81,1718.63.23Z"/>
  <path class="cls-1" d="m1837.93.23h-5.33c29.55,27.59,58.7,59.7,87.41,97.22v-5.06c-26.98-35.27-54.35-65.75-82.07-92.16Z"/>
  <path class="cls-1" d="m1779.01.23h-6.73c50.35,37.15,99.66,85.32,147.72,147.81v-5.06c-45.91-59.75-92.97-106.35-140.99-142.75Z"/>
  <path class="cls-1" d="m1827.16.23h-5.54c33.31,29.82,66.12,65.21,98.37,107.34v-5.06c-30.46-39.81-61.42-73.56-92.84-102.28Z"/>
  <path class="cls-1" d="m1815.98.23h-5.8c37.25,31.91,73.89,70.55,109.82,117.46v-5.06c-34.07-44.49-68.77-81.51-104.02-112.4Z"/>
  <path class="cls-1" d="m1791.94.23h-6.38c45.75,35.6,90.61,80.62,134.44,137.69v-5.06c-41.78-54.45-84.52-97.89-128.06-132.63Z"/>
  <path class="cls-1" d="m1804.24.23h-6.07c41.39,33.85,82.04,75.69,121.83,127.57v-5.06c-37.84-49.37-76.47-89.62-115.76-122.52Z"/>
  <path class="cls-1" d="m0,284.62c0,1.69,0,3.37,0,5.06,579.43,352.95,1340.57-718.15,1920,0v-5.06C1340.57-432.7,579.43,629.36,0,284.62Z"/>
  <path class="cls-1" d="m1457.04,501.64c-161.89,24.17-329.46,109.83-497.04,190.99-167.57,81.17-335.14,157.87-497.04,164.08-161.89,7.72-318.11-55.06-462.96-217.99,0,1.69,0,3.37,0,5.06,144.86,163.65,301.07,226.8,462.96,219.56,161.89-5.76,329.46-81.92,497.04-162.8,167.57-80.89,335.14-166.54,497.04-191.23,161.89-26.16,318.11,8.63,462.96,134.47v-5.06c-144.86-126.96-301.07-162.76-462.96-137.08Z"/>
  <path class="cls-1" d="m1457.04,532.42c-161.89,26.17-329.46,111.55-497.04,191.52-167.57,79.97-335.14,154.56-497.04,159.07-161.89,5.89-318.11-58.29-462.96-224.05,0,1.69,0,3.37,0,5.06,144.86,166.44,301.07,230.93,462.96,225.51,161.89-4.08,329.46-78.06,497.04-157.69,167.57-79.64,335.14-164.96,497.04-191.65,161.89-28.03,318.11,2.57,462.96,123.83v-5.06c-144.86-122.42-301.07-154.09-462.96-126.54Z"/>
  <path class="cls-1" d="m1457.04,516.98c-161.89,25.17-329.46,110.71-497.04,191.3-167.57,80.6-335.14,156.27-497.04,161.63-161.89,6.8-318.11-56.71-462.96-221.07,0,1.69,0,3.37,0,5.06,144.86,165.07,301.07,228.92,462.96,222.59,161.89-4.92,329.46-80.01,497.04-160.3,167.57-80.29,335.14-165.81,497.04-191.49,161.89-27.1,318.11,5.63,462.96,129.2v-5.06c-144.86-124.71-301.07-158.48-462.96-131.86Z"/>
  <path class="cls-1" d="m1457.04,563.61c-161.89,28.19-329.46,113.08-497.04,191.63-167.57,78.56-335.14,150.8-497.04,153.65-161.89,4.06-318.11-61.27-462.96-229.7,0,1.69,0,3.37,0,5.06,144.86,169.07,301.07,234.65,462.96,231.05,161.89-2.42,329.46-74.01,497.04-152.17,167.57-78.17,335.14-162.93,497.04-191.65,161.89-29.89,318.11-3.74,462.96,112.77v-5.06c-144.86-117.71-301.07-144.99-462.96-115.58Z"/>
  <path class="cls-1" d="m1457.04,547.96c-161.89,27.18-329.46,112.34-497.04,191.63-167.57,79.29-335.14,152.74-497.04,156.41-161.89,4.98-318.11-59.81-462.96-226.93,0,1.69,0,3.37,0,5.06,144.86,167.78,301.07,232.84,462.96,228.34,161.89-3.24,329.46-76.06,497.04-154.98,167.57-78.93,335.14-164,497.04-191.7,161.89-28.96,318.11-.55,462.96,118.35v-5.06c-144.86-120.08-301.07-149.59-462.96-121.11Z"/>
  <path class="cls-1" d="m1457.04,456.26c-161.89,21.23-329.46,106.88-497.04,189.41-167.57,82.54-335.14,162.01-497.04,170.81-161.89,10.46-318.11-49.74-462.96-208.12,0,1.69,0,3.37,0,5.06,144.86,159.17,301.07,219.83,462.96,209.84,161.89-8.34,329.46-87.34,497.04-169.68,167.57-82.35,335.14-168.08,497.04-189.82,161.89-23.38,318.11,17.23,462.96,149.65v-5.06c-144.86-133.48-301.07-175-462.96-152.11Z"/>
  <path class="cls-1" d="m1457.04,441.34c-161.89,20.27-329.46,105.8-497.04,188.68-167.57,82.89-335.14,163.17-497.04,172.85-161.89,11.38-318.11-47.83-462.96-204.62,0,1.69,0,3.37,0,5.06,144.86,157.59,301.07,217.3,462.96,206.4,161.89-9.22,329.46-89.05,497.04-171.77,167.57-82.73,335.14-168.37,497.04-189.14,161.89-22.45,318.11,19.97,462.96,154.51v-5.06c-144.86-135.58-301.07-178.88-462.96-156.91Z"/>
  <path class="cls-1" d="m1457.04,486.41c-161.89,23.18-329.46,108.89-497.04,190.57-167.57,81.68-335.14,159.36-497.04,166.43-161.89,8.63-318.11-53.35-462.96-214.8,0,1.69,0,3.37,0,5.06,144.86,162.2,301.07,224.58,462.96,216.42,161.89-6.62,329.46-83.77,497.04-165.2,167.57-81.43,335.14-167.16,497.04-190.86,161.89-25.23,318.11,11.56,462.96,139.64v-5.06c-144.86-129.18-301.07-166.95-462.96-142.19Z"/>
  <path class="cls-1" d="m1457.04,471.29c-161.89,22.2-329.46,107.91-497.04,190.04-167.57,82.14-335.14,160.74-497.04,168.68-161.89,9.55-318.11-51.58-462.96-211.51,0,1.69,0,3.37,0,5.06,144.86,160.7,301.07,222.26,462.96,213.19,161.89-7.48,329.46-85.58,497.04-167.49,167.57-81.92,335.14-167.68,497.04-190.39,161.89-24.31,318.11,14.43,462.96,144.7v-5.06c-144.86-131.35-301.07-171.03-462.96-147.2Z"/>
  <path class="cls-1" d="m1457.04,627.24c-161.89,32.33-329.46,115.56-497.04,190.61-167.57,75.06-335.14,141.95-497.04,141.54-161.89.43-318.11-66.44-462.96-239.74,0,1.69,0,3.37,0,5.06,144.86,173.86,301.07,240.84,462.96,240.88,161.89.81,329.46-65.32,497.04-139.88,167.57-74.56,335.14-157.55,497.04-190.41,161.89-33.63,318.11-17.14,462.96,89.4v-5.06c-144.86-107.82-301.07-125.58-462.96-92.42Z"/>
  <path class="cls-1" d="m1457.04,692.54c-161.89,36.57-329.46,117.26-497.04,187.93-167.57,70.67-335.14,131.31-497.04,127.77-161.89-3.2-318.11-70.59-462.96-248.11,0,1.69,0,3.37,0,5.06,289.71,357.74,624.86,264.95,960,122.93,335.14-141.66,670.29-316.52,960-122.93v-5.06c-144.86-97.29-301.07-104.5-462.96-67.59Z"/>
  <path class="cls-1" d="m1457.04,659.68c-161.89,34.43-329.46,116.51-497.04,189.48-167.57,72.97-335.14,136.85-497.04,134.87-161.89-1.39-318.11-68.64-462.96-244.13,0,1.69,0,3.37,0,5.06,144.86,176.01,301.07,243.32,462.96,245.17,161.89,2.38,329.46-60.69,497.04-133.11,167.57-72.42,335.14-154.18,497.04-189.16,161.89-35.51,318.11-24.22,462.96,77.09v-5.06c-144.86-102.63-301.07-115.25-462.96-80.21Z"/>
  <path class="cls-1" d="m1457.04,676.06c-161.89,35.5-329.46,116.91-497.04,188.76-167.57,71.85-335.14,134.14-497.04,131.37-161.89-2.3-318.11-69.65-462.96-246.17,0,1.69,0,3.37,0,5.06,144.86,177.03,301.07,244.41,462.96,247.16,161.89,3.16,329.46-58.3,497.04-129.57,167.57-71.26,335.14-152.34,497.04-188.38,161.89-36.45,318.11-27.86,462.96,70.78v-5.06c-144.86-99.98-301.07-109.93-462.96-73.95Z"/>
  <path class="cls-1" d="m1457.04,164.85c-161.89,2.42-329.46,74.01-497.04,152.17-167.57,78.17-335.14,162.93-497.04,191.65-161.89,29.89-318.11,3.74-462.96-112.77,0,1.69,0,3.37,0,5.06,144.86,117.71,301.07,145,462.96,115.58,161.89-28.19,329.46-113.08,497.04-191.63,167.57-78.56,335.14-150.8,497.04-153.65,161.89-4.06,318.11,61.27,462.96,229.7v-5.06c-144.86-169.07-301.07-234.65-462.96-231.05Z"/>
  <path class="cls-1" d="m1457.04,579.36c-161.89,29.22-329.46,113.77-497.04,191.53-167.57,77.77-335.14,148.75-497.04,150.78-161.89,3.15-318.11-62.66-462.96-232.36,0,1.69,0,3.37,0,5.06,144.86,170.33,301.07,236.35,462.96,233.67,161.89-1.6,329.46-71.91,497.04-149.25,167.57-77.35,335.14-161.75,497.04-191.5,161.89-30.83,318.11-6.99,462.96,107.08v-5.06c-144.86-115.3-301.07-140.3-462.96-109.95Z"/>
  <path class="cls-1" d="m1457.04,611.18c-161.89,31.28-329.46,115.01-497.04,191.02-167.57,76.02-335.14,144.33-497.04,144.73-161.89,1.33-318.11-65.24-462.96-237.38,0,1.69,0,3.37,0,5.06,144.86,172.72,301.07,239.45,462.96,238.58,161.89.01,329.46-67.57,497.04-143.11,167.57-75.54,335.14-159.06,497.04-190.87,161.89-32.7,318.11-13.69,462.96,95.4v-5.06c-144.86-110.35-301.07-130.59-462.96-98.37Z"/>
  <path class="cls-1" d="m1457.04,643.41c-161.89,33.38-329.46,116.06-497.04,190.1-167.57,74.04-335.14,139.46-497.04,138.26-161.89-.48-318.11-67.57-462.96-241.99,0,1.69,0,3.37,0,5.06,144.86,174.96,301.07,242.14,462.96,243.08,161.89,1.6,329.46-63.03,497.04-136.54,167.57-73.52,335.14-155.92,497.04-189.83,161.89-34.57,318.11-20.65,462.96,83.3v-5.06c-144.86-105.25-301.07-120.46-462.96-86.37Z"/>
  <path class="cls-1" d="m1457.04,595.22c-161.89,30.24-329.46,114.42-497.04,191.33-167.57,76.92-335.14,146.6-497.04,147.8-161.89,2.24-318.11-63.98-462.96-234.93,0,1.69,0,3.37,0,5.06,144.86,171.55,301.07,237.95,462.96,236.18,161.89-.79,329.46-69.76,497.04-146.23,167.57-76.47,335.14-160.46,497.04-191.24,161.89-31.76,318.11-10.31,462.96,101.29v-5.06c-144.86-112.84-301.07-135.49-462.96-104.21Z"/>
  <path class="cls-1" d="m1457.04,426.53c-161.89,19.31-329.46,104.67-497.04,187.84-167.57,83.18-335.14,164.21-497.04,174.78-161.89,12.3-318.11-45.86-462.96-201.02,0,1.69,0,3.37,0,5.06,144.86,155.97,301.07,214.67,462.96,202.85,161.89-10.1,329.46-90.71,497.04-173.75,167.57-83.04,335.14-168.55,497.04-188.35,161.89-21.52,318.11,22.65,462.96,159.26v-5.06c-144.86-137.63-301.07-182.65-462.96-161.61Z"/>
  <path class="cls-1" d="m960,896.27C624.86,1036.28,289.71,1128.5,0,770.25c0,1.69,0,3.37,0,5.06,579.43,720.09,1340.57-377.03,1920,0v-5.06c-289.71-190.41-624.86-14.26-960,126.02Z"/>
  <path class="cls-1" d="m1457.04,256.89c-161.89,8.35-329.46,87.34-497.04,169.68-167.57,82.35-335.14,168.08-497.04,189.82-161.89,23.38-318.11-17.23-462.96-149.65,0,1.69,0,3.37,0,5.06,144.86,133.48,301.07,175,462.96,152.11,161.89-21.23,329.46-106.88,497.04-189.41,167.57-82.54,335.14-162.01,497.04-170.81,161.89-10.46,318.11,49.74,462.96,208.12v-5.06c-144.86-159.16-301.07-219.83-462.96-209.84Z"/>
  <path class="cls-1" d="m1457.04,230.07c-161.89,6.62-329.46,83.77-497.04,165.2-167.57,81.43-335.14,167.16-497.04,190.86-161.89,25.23-318.11-11.56-462.96-139.64,0,1.69,0,3.37,0,5.06,144.86,129.18,301.07,166.95,462.96,142.19,161.89-23.19,329.46-108.89,497.04-190.57,167.57-81.68,335.14-159.36,497.04-166.43,161.89-8.63,318.11,53.35,462.96,214.8v-5.06c-144.86-162.2-301.07-224.58-462.96-216.42Z"/>
  <path class="cls-1" d="m1457.04,243.43c-161.89,7.48-329.46,85.58-497.04,167.49-167.57,81.92-335.14,167.68-497.04,190.39-161.89,24.31-318.11-14.43-462.96-144.7,0,1.69,0,3.37,0,5.06,144.86,131.35,301.07,171.03,462.96,147.2,161.89-22.2,329.46-107.91,497.04-190.04,167.57-82.14,335.14-160.74,497.04-168.68,161.89-9.55,318.11,51.58,462.96,211.51v-5.06c-144.86-160.7-301.07-222.26-462.96-213.19Z"/>
  <path class="cls-1" d="m1457.04,270.45c-161.89,9.22-329.46,89.05-497.04,171.77-167.57,82.73-335.14,168.37-497.04,189.14-161.89,22.45-318.11-19.97-462.96-154.51,0,1.69,0,3.37,0,5.06,144.86,135.58,301.07,178.88,462.96,156.91,161.89-20.27,329.46-105.8,497.04-188.68,167.57-82.89,335.14-163.17,497.04-172.85,161.89-11.38,318.11,47.83,462.96,204.62v-5.06c-144.86-157.59-301.07-217.3-462.96-206.4Z"/>
  <path class="cls-1" d="m1457.04,284.12c-161.89,10.1-329.46,90.71-497.04,173.75-167.57,83.04-335.14,168.55-497.04,188.35-161.89,21.52-318.11-22.65-462.96-159.26,0,1.69,0,3.37,0,5.06,144.86,137.63,301.07,182.65,462.96,161.61,161.89-19.31,329.46-104.67,497.04-187.84,167.57-83.18,335.14-164.21,497.04-174.78,161.89-12.3,318.11,45.86,462.96,201.01v-5.06c-144.86-155.97-301.07-214.67-462.96-202.85Z"/>
  <path class="cls-1" d="m1457.04,216.82c-161.89,5.76-329.46,81.92-497.04,162.8-167.57,80.89-335.14,166.54-497.04,191.23-161.89,26.16-318.11-8.63-462.96-134.47,0,1.69,0,3.37,0,5.06,144.86,126.96,301.07,162.76,462.96,137.08,161.89-24.17,329.46-109.83,497.04-190.99,167.57-81.17,335.14-157.87,497.04-164.08,161.89-7.72,318.11,55.06,462.96,217.99v-5.06c-144.86-163.65-301.07-226.8-462.96-219.56Z"/>
  <path class="cls-1" d="m1457.04,177.69c-161.89,3.24-329.46,76.06-497.04,154.98-167.57,78.93-335.14,164-497.04,191.7-161.89,28.96-318.11.55-462.96-118.35,0,1.69,0,3.37,0,5.06,144.86,120.08,301.07,149.59,462.96,121.11,161.89-27.18,329.46-112.34,497.04-191.63,167.57-79.29,335.14-152.74,497.04-156.41,161.89-4.98,318.11,59.81,462.96,226.93v-5.06c-144.86-167.78-301.07-232.84-462.96-228.34Z"/>
  <path class="cls-1" d="m1457.04,190.63c-161.89,4.08-329.46,78.06-497.04,157.69-167.57,79.64-335.14,164.96-497.04,191.65-161.89,28.03-318.11-2.57-462.96-123.83,0,1.69,0,3.37,0,5.06,144.86,122.42,301.07,154.09,462.96,126.54,161.89-26.17,329.46-111.55,497.04-191.52,167.57-79.97,335.14-154.56,497.04-159.07,161.89-5.89,318.11,58.29,462.96,224.05v-5.06c-144.86-166.44-301.07-230.93-462.96-225.52Z"/>
  <path class="cls-1" d="m1457.04,203.67c-161.89,4.92-329.46,80.01-497.04,160.3-167.57,80.29-335.14,165.81-497.04,191.49-161.89,27.1-318.11-5.64-462.96-129.2,0,1.69,0,3.37,0,5.06,144.86,124.71,301.07,158.48,462.96,131.86,161.89-25.17,329.46-110.71,497.04-191.3,167.57-80.6,335.14-156.27,497.04-161.63,161.89-6.8,318.11,56.71,462.96,221.07v-5.06c-144.86-165.07-301.07-228.92-462.96-222.59Z"/>
  <path class="cls-1" d="m1457.04,368.32c-161.89,15.54-329.46,99.67-497.04,183.45-167.57,83.79-335.14,167.28-497.04,181.46-161.89,15.98-318.11-37.35-462.96-185.56,0,1.69,0,3.37,0,5.06,144.86,149.12,301.07,203.1,462.96,187.6,161.89-13.7,329.46-96.88,497.04-180.63,167.57-83.77,335.14-168.15,497.04-184.18,161.89-17.82,318.11,32.71,462.96,177.21v-5.06c-144.86-145.45-301.07-196.69-462.96-179.35Z"/>
  <path class="cls-1" d="m1457.04,297.89c-161.89,10.99-329.46,92.33-497.04,175.63-167.57,83.31-335.14,168.61-497.04,187.47-161.89,20.6-318.11-25.26-462.96-163.9,0,1.69,0,3.37,0,5.06,144.86,139.64,301.07,186.31,462.96,166.2,161.89-18.35,329.46-103.49,497.04-186.9,167.57-83.42,335.14-165.15,497.04-176.61,161.89-13.22,318.11,43.83,462.96,197.31v-5.06c-144.86-154.32-301.07-211.93-462.96-199.19Z"/>
  <path class="cls-1" d="m1457.04,411.82c-161.89,18.35-329.46,103.49-497.04,186.9-167.57,83.42-335.14,165.15-497.04,176.61-161.89,13.22-318.11-43.83-462.96-197.31,0,1.69,0,3.37,0,5.06,144.86,154.32,301.07,211.93,462.96,199.19,161.89-10.99,329.46-92.33,497.04-175.63,167.57-83.31,335.14-168.61,497.04-187.47,161.89-20.6,318.11,25.26,462.96,163.9v-5.06c-144.86-139.64-301.07-186.31-462.96-166.2Z"/>
  <path class="cls-1" d="m1457.04,397.21c-161.89,17.41-329.46,102.26-497.04,185.85-167.57,83.6-335.14,165.97-497.04,178.33-161.89,14.14-318.11-41.74-462.96-193.5,0,1.69,0,3.37,0,5.06,144.86,152.63,301.07,209.09,462.96,195.43,161.89-11.89,329.46-93.89,497.04-177.4,167.57-83.52,335.14-168.57,497.04-186.47,161.89-19.67,318.11,27.81,462.96,168.44v-5.06c-144.86-141.62-301.07-189.88-462.96-170.69Z"/>
  <path class="cls-1" d="m1457.04,354.02c-161.89,14.62-329.46,98.3-497.04,182.09-167.57,83.81-335.14,167.77-497.04,182.87-161.89,16.9-318.11-35.06-462.96-181.44,0,1.69,0,3.37,0,5.06,144.86,147.3,301.07,199.95,462.96,183.53,161.89-14.62,329.46-98.3,497.04-182.09,167.57-83.81,335.14-167.77,497.04-182.87,161.89-16.9,318.11,35.06,462.96,181.44v-5.06c-144.86-147.3-301.07-199.95-462.96-183.53Z"/>
  <path class="cls-1" d="m1457.04,382.71c-161.89,16.47-329.46,100.99-497.04,184.71-167.57,83.73-335.14,166.68-497.04,179.95-161.89,15.06-318.11-39.57-462.96-189.58,0,1.69,0,3.37,0,5.06,144.86,150.89,301.07,206.14,462.96,191.57,161.89-12.79,329.46-95.41,497.04-179.07,167.57-83.67,335.14-168.41,497.04-185.38,161.89-18.75,318.11,30.29,462.96,172.88v-5.06c-144.86-143.55-301.07-193.34-462.96-175.07Z"/>
  <path class="cls-1" d="m1457.04,339.83c-161.89,13.7-329.46,96.88-497.04,180.63-167.57,83.77-335.14,168.15-497.04,184.18-161.89,17.82-318.11-32.71-462.96-177.21,0,1.69,0,3.37,0,5.06,144.86,145.45,301.07,196.69,462.96,179.35,161.89-15.54,329.46-99.67,497.04-183.45,167.57-83.79,335.14-167.28,497.04-181.46,161.89-15.98,318.11,37.35,462.96,185.56v-5.06c-144.86-149.12-301.07-203.1-462.96-187.6Z"/>
  <path class="cls-1" d="m1457.04,311.77c-161.89,11.89-329.46,93.89-497.04,177.4-167.57,83.52-335.14,168.57-497.04,186.47-161.89,19.67-318.11-27.81-462.96-168.44,0,1.69,0,3.37,0,5.06,144.86,141.62,301.07,189.88,462.96,170.69,161.89-17.41,329.46-102.26,497.04-185.85,167.57-83.6,335.14-165.97,497.04-178.33,161.89-14.14,318.11,41.74,462.96,193.5v-5.06c-144.86-152.63-301.07-209.09-462.96-195.43Z"/>
  <path class="cls-1" d="m1457.04,325.75c-161.89,12.79-329.46,95.41-497.04,179.07-167.57,83.67-335.14,168.41-497.04,185.38-161.89,18.75-318.11-30.29-462.96-172.88,0,1.69,0,3.37,0,5.06,144.86,143.55,301.07,193.34,462.96,175.07,161.89-16.47,329.46-100.99,497.04-184.71,167.57-83.73,335.14-166.68,497.04-179.95,161.89-15.06,318.11,39.57,462.96,189.58v-5.06c-144.86-150.89-301.07-206.14-462.96-191.57Z"/>
</svg>